American Reunion 720p (HD CAM)

General
Complete name                            : American Reunion 720p (HD CAM)American Reunion 720p (HD CAM).avi
Format                                   : AVI
Format/Info                              : Audio Video Interleave
Format profile                           : OpenDML
File size                                : 2.96 GiB
Duration                                 : 1h 44mn
Overall bit rate                         : 4 058 Kbps

Video
ID                                       : 0
Format                                   : MPEG-4 Visual
Format profile                           : Advanced Simple@L4
Format settings, BVOP                    : No
Format settings, QPel                    : No
Format settings, GMC                     : No warppoints
Format settings, Matrix                  : Default (H.263)
Codec ID                                 : XVID
Codec ID/Hint                            : XviD
Duration                                 : 1h 44mn
Bit rate                                 : 3 915 Kbps
Width                                    : 1 280 pixels
Height                                   : 720 pixels
Display aspect ratio                     : 16:9
Frame rate                               : 29.970 fps
Color space                              : YUV
Chroma subsampling                       : 4:2:0
Bit depth                                : 8 bits
Scan type                                : Progressive
Compression mode                         : Lossy
Bits/(Pixel*Frame)                       : 0.142
Stream size                              : 2.86 GiB (96%)

Audio
ID                                       : 1
Format                                   : MPEG Audio
Format version                           : Version 1
Format profile                           : Layer 3
Codec ID                                 : 55
Codec ID/Hint                            : MP3
Duration                                 : 1h 44mn
Bit rate mode                            : Constant
Bit rate                                 : 128 Kbps
Channel(s)                               : 2 channels
Sampling rate                            : 44.1 KHz
Compression mode                         : Lossy
Stream size                              : 95.6 MiB (3%)
Alignment                                : Split accross interleaves
Interleave, duration                     : 26 ms (0.78 video frame)


Screenshots 
http://i1245.photobucket.com/albums/gg583/KingJames1984/AmericanReunionCAMFrame-5838.jpg
 
http://i1245.photobucket.com/albums/gg583/KingJames1984/AmericanReunionCAMFrame-136072.jpg
 
http://i1245.photobucket.com/albums/gg583/KingJames1984/AmericanReunionCAMFrame-30411.jpg
 
http://i1245.photobucket.com/albums/gg583/KingJames1984/AmericanReunionCAMFrame-47388.jpg
 
http://i1245.photobucket.com/albums/gg583/KingJames1984/AmericanReunionCAMFrame-48480.jpg


Enjoy & Leave Comments took me along time to do this torrent..